<svg role="img" aria-label="Book Icon" xmlns="http://www.w3.org/2000/svg" width="118" height="182" fill="none"><path stroke="#734F96" stroke-miterlimit="10" stroke-width="4" d="M59.636 115.698c2.797-1.694 4.386-4.153 3.948-6.284-.274-1.312-1.37-2.897-2.522-2.842-1.097.055-1.974 1.475-2.303 2.404-.383.984-.274 1.804-.548 1.858-.274.055-.384-.819-1.042-1.748-.273-.383-1.261-1.913-2.357-1.913-1.371 0-2.852 2.459-2.523 4.482.11.873.55 1.53 1.974 2.95 1.59 1.586 4.003 3.607 5.648 4.372 5.483 2.623 17.16-1.202 23.905-9.563 5.538-6.832 6.086-14.592 6.086-18.035-.494-.71-1.152-1.42-1.864-1.366-.549.055-.878.546-.932.656-4.826 4.809-9.65 10.547-16.394 8.634-2.906-.983-1.919-4.809-.987-7.705 7.731-9.619 9.65-23.062-.987-29.784-7.73-4.81-13.488 3.825-15.407 9.618-1.919 6.722.987 13.444 5.757 19.237.275.601 2.029 4.535.165 7.213-1.48 2.132-4.497 2.241-5.977 2.296-10.033.383-25.934-14.428-28.84-17.16C20 78 25.423 73.398 29.262 69.573 41.817 57.06 58 57 60.5 41M73 40c5 20 42 38 26.607 57.445-17.327 20.603-18.697 31.151-15.682 36.999 2.358 4.59 6.745 5.082 7.074 9.29.547 7.049-11.405 13.498-27.031 21.914-10.253 5.52-15.79 7.214-17.326 7.706-7.785 2.295-14.913 2.787-21.492 2.787-12.118.054-18.204.054-20.835-3.115-2.248-2.678-2.468-6.285-2.248-8.963.986-1.858 3.07-5.192 6.963-7.05 1.37-.655 3.838-1.53 10.91-.929a79.76 79.76 0 0 1 15.134 2.843c13.487 4.808 26.975 10.547 40.463 15.356 9.65 2.896 19.3 5.738 29.881 2.896 5.758-1.913 10.582-6.722 10.582-12.515 0-3.005-2.851-4.972-3.838-5.737-6.031-4.756-14.31-1.968-15.242-1.64a210.777 210.777 0 0 0-21.493 6.722c-11.02 4.098-20.67 8.689-28.84 13.225 0 0-.987.983-.987 1.913 1.316.273 2.796.492 4.332.655 3.564.328 6.799.219 9.485-.109"/><path fill="#734F96" d="M78.284 34.691C91.426 32.185 97 36.761 97 36.761c-2.96-4.56-6.666-7.395-15.678-6.25-10.43 1.327-21.292 7.284-30.782 3.065-9.49-4.216-6.977-15.87-6.977-15.87 7.462 2.792 12.086 12.824 12.086 12.824-1.946-13.964-15.818-19.605-15.818-19.605-2.433 8.263.378 20.622 9.736 24.336 7.97 3.162 15.575 1.937 28.717-.57ZM48.314 36.78c.372.334.774.658 1.212.97 9.353 6.69 22.932 2.44 34.801 3.21 3.844.25 6.716.956 8.912 2.04-2.392-2.292-6.012-3.782-11.975-4.167-11.107-.72-23.712 2.953-32.95-2.053Z"/><path fill="#734F96" d="M50.268 9.215s2.57.895 4.967 2.913c.293-.68.62-1.364.982-2.055-1.765-1.7-4.258-3.478-7.749-5.255-1.236 3.02-1.863 5.578-2.071 7.742a31.68 31.68 0 0 1 2.174 1.779c.37-2.942 1.697-5.124 1.697-5.124ZM80.34 9.215s1.282 2.114 1.675 4.984a31.73 31.73 0 0 1 2.182-1.76c-.22-2.139-.845-4.659-2.058-7.62-3.49 1.776-5.984 3.554-7.748 5.254.361.693.69 1.378.982 2.055 2.396-2.018 4.967-2.913 4.967-2.913Z"/><path fill="#734F96" d="M59.626 30.746C52.16 18.056 65.033 7.72 65.3 7.51l.007-.006s13.224 10.419 5.679 23.243c0 0 14.115-9.803-5.68-30.748a.067.067 0 0 1-.006.007c-19.785 20.938-5.673 30.739-5.673 30.739Z"/><path fill="#734F96" d="M74.78 30.53s4.624-10.03 12.087-12.825c0 0 1.364 6.33-1.717 11.347 1.03.005 1.978.075 2.855.202 3.493-5.385 4.227-12.779 2.593-18.33 0 0-13.872 5.642-15.817 19.606Z"/></svg>