<svg role="img" aria-label="Book Icon" xmlns="http://www.w3.org/2000/svg" width="124" height="206" fill="none"><path stroke="#734F96" stroke-miterlimit="10" stroke-width="3.351" d="M62.67 136.467c2.944-1.779 4.617-4.362 4.156-6.6-.29-1.378-1.444-3.042-2.655-2.985-1.155.058-2.078 1.55-2.424 2.525-.404 1.034-.29 1.894-.577 1.952-.29.057-.405-.861-1.097-1.837-.288-.402-1.328-2.009-2.482-2.009-1.443 0-3.001 2.583-2.655 4.707.116.918.578 1.607 2.078 3.099 1.674 1.665 4.213 3.788 5.944 4.592 5.772 2.755 18.065-1.263 25.164-10.044 5.83-7.175 6.406-15.325 6.406-18.941-.52-.746-1.212-1.492-1.962-1.435-.577.058-.924.574-.981.689-5.08 5.05-10.158 11.077-17.257 9.068-3.058-1.033-2.02-5.05-1.039-8.092 8.138-10.103 10.159-24.222-1.039-31.281-8.137-5.051-14.197 4.017-16.217 10.101-2.02 7.06 1.039 14.12 6.06 20.204.289.631 2.135 4.763.173 7.576-1.558 2.238-4.733 2.353-6.291 2.41-10.561.403-27.299-15.152-30.358-18.022-3.059-5.05 1.039-10.101 5.08-14.119C43.912 74.882 60.13 66.845 71.27 50.717c.807-1.204 2.078-3.443 2.424-6.543.46-4.246-1.212-7.863-2.424-9.929l-.52 1.263-.462 1.09c-7.099 12.111 1.04 25.197 11.14 33.29 15.236 11.078 33.473 28.238 23.316 47.409-18.238 21.638-19.68 32.715-16.507 38.857 2.482 4.821 7.1 5.338 7.446 9.757.576 7.404-12.005 14.176-28.454 23.016-10.792 5.797-16.621 7.576-18.237 8.093-8.195 2.41-15.699 2.927-22.624 2.927-12.755.057-19.161.057-21.932-3.272-2.366-2.812-2.597-6.6-2.366-9.413 1.039-1.951 3.232-5.453 7.33-7.404 1.442-.688 4.04-1.607 11.485-.975 3.866.344 9.35 1.09 15.93 2.984 14.196 5.051 28.394 11.077 42.592 16.129 10.158 3.042 20.315 6.025 31.454 3.042 6.061-2.01 11.139-7.061 11.139-13.145 0-3.156-3.001-5.222-4.04-6.026-6.348-4.994-15.063-2.066-16.044-1.722a222.136 222.136 0 0 0-22.624 7.06c-11.6 4.305-21.759 9.126-30.358 13.89 0 0-1.039 1.032-1.039 2.009a48.1 48.1 0 0 0 4.56.688c3.751.345 7.157.229 9.984-.115"/><path fill="#734F96" d="M81.796 31.082c11.715-2.245 16.683 1.855 16.683 1.855-2.638-4.087-5.942-6.627-13.974-5.6-9.296 1.188-18.978 6.525-27.437 2.746-8.46-3.777-6.22-14.22-6.22-14.22 6.652 2.502 10.773 11.49 10.773 11.49-1.734-12.51-14.098-17.565-14.098-17.565-2.17 7.404.336 18.477 8.677 21.804 7.105 2.834 13.883 1.735 25.596-.51Z"/><path fill="#734F96" d="M55.084 32.953c.33.299.69.59 1.08.868 8.336 5.994 20.44 2.187 31.02 2.876 3.425.224 5.985.857 7.942 1.829-2.132-2.054-5.358-3.388-10.673-3.734-9.9-.645-21.136 2.646-29.37-1.84ZM56.825 8.256s2.291.802 4.427 2.61c.261-.608.554-1.222.876-1.841-1.573-1.523-3.795-3.116-6.907-4.708-1.102 2.705-1.66 4.997-1.846 6.935.63.474 1.283 1.005 1.938 1.595.33-2.636 1.512-4.59 1.512-4.59ZM83.63 8.256s1.141 1.894 1.492 4.465a28.366 28.366 0 0 1 1.945-1.576c-.196-1.916-.753-4.175-1.834-6.828-3.112 1.592-5.334 3.185-6.907 4.708.322.62.616 1.234.876 1.841 2.135-1.808 4.427-2.61 4.427-2.61Z"/><path fill="#734F96" d="M65.166 27.547c-6.655-11.37 4.82-20.63 5.056-20.818a.02.02 0 0 1 .007-.005S82.016 16.06 75.29 27.55c0 0 12.58-8.783-5.063-27.549l-.005.007c-17.636 18.759-5.057 27.54-5.057 27.54Z"/><path fill="#734F96" d="M78.674 27.353s4.122-8.986 10.773-11.49c0 0 1.216 5.671-1.53 10.167.918.004 1.763.066 2.544.18 3.114-4.824 3.769-11.449 2.312-16.422 0 0-12.365 5.054-14.099 17.565Z"/></svg>