<svg role="img" aria-label="Contact Icon" xmlns="http://www.w3.org/2000/svg" width="150" height="121" fill="none"><path fill="#734F96" d="M89.335 113.316 63.077 86.359l13.121-12.103-.095-.095c-.884-.901-1.768-1.817-2.62-2.734L49.656 93.36c-1.69 1.564-4.358 1.564-6.048 0L7.01 59.64H64.34a56.932 56.932 0 0 1-2.384-3.95H1.973C.883 55.69 0 56.574 0 57.664v60.504c0 1.089.884 1.974 1.973 1.974h89.335a1.965 1.965 0 0 0 1.973-1.974V87.591a96.183 96.183 0 0 1-3.946-2.48v28.205ZM3.947 62.167 30.188 86.36 3.947 113.316V62.167Zm2.7 54.041L33.109 89.03l7.848 7.236a8.475 8.475 0 0 0 5.7 2.213 8.324 8.324 0 0 0 5.668-2.213l7.847-7.237 26.462 27.179H6.647ZM102.815 31.127c-.166 1.071.526 2.079 1.551 2.268 2.995.52 5.705 1.984 7.874 4.236 2.153 2.252 3.553 5.102 4.064 8.236.151.961.949 1.638 1.852 1.638.106 0 .211-.016.316-.031 1.024-.173 1.716-1.197 1.551-2.268-.633-3.937-2.394-7.528-5.104-10.362-2.71-2.835-6.142-4.693-9.906-5.338-1.069-.174-2.018.55-2.198 1.621ZM135.865 14.289A48.526 48.526 0 0 0 104.54.147c-1.074-.08-2.022.758-2.085 1.85a1.966 1.966 0 0 0 1.848 2.085 44.57 44.57 0 0 1 28.783 12.988 44.554 44.554 0 0 1 12.978 28.806 1.97 1.97 0 0 0 1.958 1.85h.127a1.967 1.967 0 0 0 1.848-2.087 48.488 48.488 0 0 0-14.132-31.35Z"/><path fill="#734F96" d="M131.111 45.737a1.964 1.964 0 0 0 1.967 1.768c.064 0 .127 0 .174-.015a1.948 1.948 0 0 0 1.793-2.11c-.714-7.742-4.204-15.034-9.836-20.54-5.616-5.494-13.072-8.906-21.003-9.62a1.966 1.966 0 0 0-2.158 1.753c-.096 1.07.698 2.001 1.793 2.11 6.995.62 13.595 3.646 18.56 8.502 4.998 4.856 8.075 11.31 8.71 18.152ZM134.28 65.794l-15.174-7.856a8.418 8.418 0 0 0-10.479 2.291l-3.778 4.853c-3.683-2.15-7.08-4.552-11.048-8.52-4.11-4.109-6.48-7.46-8.646-11.284l4.79-3.747a8.416 8.416 0 0 0 2.291-10.479L84.43 15.99c-1.107-2.118-3.051-3.682-5.359-4.268a8.454 8.454 0 0 0-6.764 1.139l-9.674 6.449a10.967 10.967 0 0 0-4.836 9.799c.189 2.719.553 6.528 1.264 9.263 2.955 11.395 10.037 23.108 19.93 33.002 9.896 9.895 21.607 16.975 33.004 19.931 2.75.711 6.575 1.075 9.325 1.249.237.016.458.016.696.016 3.73 0 7.16-1.866 9.167-5.01l6.291-9.768a8.395 8.395 0 0 0 1.042-6.718c-.584-2.26-2.133-4.189-4.235-5.28Zm-.111 9.879-6.307 9.767a6.904 6.904 0 0 1-5.847 3.193c-.158 0-.317 0-.443-.016-2.561-.174-6.117-.506-8.567-1.137-10.732-2.799-21.812-9.5-31.216-18.904-9.405-9.405-16.122-20.485-18.904-31.201-.632-2.45-.964-5.99-1.138-8.536-.158-2.481 1.012-4.884 3.082-6.259l9.674-6.449a4.429 4.429 0 0 1 2.465-.743c.38 0 .743.048 1.122.142a4.452 4.452 0 0 1 2.846 2.261l7.807 15.094a4.472 4.472 0 0 1-1.216 5.565l-6.134 4.773c-.758.6-.98 1.644-.52 2.497 2.512 4.615 5.2 8.71 10.13 13.64 4.805 4.805 8.82 7.477 13.388 10.006a1.976 1.976 0 0 0 2.513-.506l4.837-6.196c1.311-1.69 3.651-2.197 5.563-1.217l15.174 7.84c1.106.584 1.944 1.596 2.26 2.813a4.577 4.577 0 0 1-.569 3.573Z"/></svg>