<svg xmlns="http://www.w3.org/2000/svg" width="31" height="40" fill="none">
    <path role="img" aria-label="Copy Icon" fill="#fff" d="M29.5312 0H5.97656C5.7832 0 5.625 0.158203 5.625 0.351562V2.8125C5.625 3.00586 5.7832 3.16406 5.97656 3.16406H27.7734V33.3984C27.7734 33.5918 27.9316 33.75 28.125 33.75H30.5859C30.7793 33.75 30.9375 33.5918 30.9375 33.3984V1.40625C30.9375 0.628418 30.3091 0 29.5312 0ZM23.9062 5.625H1.40625C0.628418 5.625 0 6.25342 0 7.03125V30.353C0 30.7266 0.149414 31.0825 0.413086 31.3462L8.02881 38.9619C8.12549 39.0586 8.23535 39.1377 8.354 39.2036V39.2871H8.53857C8.69238 39.3442 8.85498 39.375 9.02197 39.375H23.9062C24.6841 39.375 25.3125 38.7466 25.3125 37.9688V7.03125C25.3125 6.25342 24.6841 5.625 23.9062 5.625ZM8.34961 34.8135L4.56592 31.0254H8.34961V34.8135ZM22.1484 36.2109H11.1621V29.9707C11.1621 28.9995 10.3755 28.2129 9.4043 28.2129H3.16406V8.78906H22.1484V36.2109Z"/>
</svg>