<svg xmlns="http://www.w3.org/2000/svg" width="24" height="30" fill="none">
    <path role="img" aria-label="Copy Icon" fill="#fff" d="M22.336 0H4.52a.268.268 0 0 0-.265.268v1.875c0 .147.12.268.265.268h16.487v23.035c0 .148.12.268.266.268h1.861c.146 0 .266-.12.266-.268V1.071C23.4.48 22.925 0 22.336 0Zm-4.254 4.286H1.064C.475 4.286 0 4.765 0 5.357v17.77c0 .284.113.555.312.756l5.76 5.802c.074.074.157.134.247.184v.064h.14c.116.044.239.067.365.067h11.258c.588 0 1.063-.479 1.063-1.071V5.357c0-.592-.475-1.071-1.063-1.071ZM6.315 26.525l-2.862-2.887h2.862v2.887Zm10.437 1.064h-8.31v-4.754c0-.74-.594-1.34-1.329-1.34h-4.72V6.697h14.36V27.59Z"/>
</svg>