<svg role="img" aria-label="Team Icon" xmlns="http://www.w3.org/2000/svg" width="150" height="145" fill="none"><path fill="#734F96" d="M61.101 106.419c-4.68-3.817-9.54-7.814-14.039-12.175-4.59-4.36-9.81-9.358-13.14-15.899a38.969 38.969 0 0 1-3.24-8.903c-.27-1 .36-1.999 1.35-2.181.99-.273 1.98.364 2.16 1.363.63 2.816 1.62 5.542 2.97 7.995 3.06 5.996 8.01 10.72 12.42 14.9s9.18 8.177 13.859 11.992c1.71 1.363 3.42 2.816 5.04 4.179 1.35 1.091 3.15 2.635 4.95 4.179 2.25 1.909 4.86 4.089 6.3 5.27 1.44-1.181 4.05-3.361 6.21-5.27l1.35-1.18c.72-.637 1.89-.545 2.52.181.63.727.54 1.908-.18 2.544l-1.35 1.181c-1.8 1.545-3.69 3.089-5.04 4.27-.72.545-1.26 1.09-1.71 1.454a2.76 2.76 0 0 1-.63.454c-.36.364-.72.454-1.17.454h-.09c-.36 0-.72-.09-1.08-.454-.27-.182-.45-.363-.63-.454a50.56 50.56 0 0 1-1.71-1.454c-1.35-1.181-3.24-2.725-5.04-4.27-1.8-1.544-3.6-2.998-4.95-4.179-1.71-1.272-3.42-2.635-5.13-3.997Zm56.429-26.53c-7.92 6.088-11.25 12.993-12.69 17.808-.45 1.544-.81 3.088-.99 4.724-2.07 2.362-11.79 13.355-15.3 18.716-2.79 4.269-1.98 9.993 1.89 13.445.36.273.72.455 1.17.455.36 0 .81-.091 1.17-.455L109.88 120.5l10.26-5.905c.9-.454 1.171-1.635.721-2.453-.45-.908-1.621-1.181-2.43-.727l-10.44 5.905c-.09.092-.18.092-.27.183l-15.93 13.173c-1.62-2.18-1.8-5.27-.27-7.541 3.69-5.632 15.3-18.533 15.39-18.715.27-.273.45-.636.45-1 .18-1.635.54-3.18.99-4.724 1.26-4.27 4.229-10.448 11.339-15.9 2.25-1.725 4.68-3.088 7.29-4.178 4.59-1.908 9.72-2.362 14.94-1.272 1.71.363 3.51.635 5.31.818a1.822 1.822 0 0 0 1.98-1.636c.089-1-.631-1.908-1.62-1.998-1.71-.183-3.33-.455-4.951-.728-5.939-1.18-11.789-.635-17.009 1.454-2.79 1.181-5.58 2.725-8.099 4.634Zm31.679 24.44c-.361-.909-1.35-1.454-2.341-1.09-4.409 1.635-8.01 3.997-10.169 6.722l-22.679 23.713c-2.07 2.181-4.68 3.634-7.65 4.179-12.69 2.454-17.82 2.999-19.89 2.999l-29.338-2.545c.54-1.18 1.53-2.18 2.79-2.907 1.35-.727 4.23-.545 6.839-.273 1.17.092 2.43.183 3.6.183h.18l14.85-1.454c.99-.091 1.71-1 1.62-1.999a1.82 1.82 0 0 0-1.98-1.635l-14.76 1.454c-.99 0-2.07-.091-3.24-.183-2.7-.181-5.49-.454-7.65.273-.27-.273-.72-.454-1.17-.454h-4.59v-.091c0-.091.09-.182.09-.363a4.482 4.482 0 0 1 2.52-2.453c.27-.091.63-.273.9-.364.72-.273 1.53-.454 2.34-.454 1.89 0 4.05 0 6.12.091 2.61 0 5.31.09 7.56.09h.18l8.28-.817c.99-.091 1.71-1 1.62-1.999-.09-.999-.99-1.726-1.98-1.635l-8.19.817c-2.25 0-4.77 0-7.38-.09-1.53 0-3.06 0-4.5-.091.18-.182.27-.454.36-.818.54-2.089 3.06-3.27 7.47-3.543.99-.091 1.71-.909 1.71-1.908a1.876 1.876 0 0 0-1.89-1.726c-6.21.363-9.81 2.544-10.71 6.269-.09.273-.18.545-.18.908 0 .364.18.727.36.999-.81.091-1.62.273-2.43.637-.36.091-.629.272-.99.363-2.069.908-3.69 2.453-4.41 4.452-.089.182-.089.363-.18.454-.359 1.181-.27 2.453.45 3.453.721.999 1.8 1.544 2.97 1.544h1.35c-.63.818-1.169 1.817-1.53 2.816-.27.818-.63 2.09.09 3.089a2.77 2.77 0 0 0 1.8.999l30.78 2.635h.18c3.15 0 10.08-.999 20.609-3.089a18.098 18.098 0 0 0 9.63-5.269l22.678-23.803s.091-.091.091-.182c1.71-2.181 4.86-4.27 8.64-5.633 1.079-.273 1.529-1.363 1.17-2.271ZM44.812 47.456c.45-1.545.81-3.09.99-4.725 1.08-1.181 4.32-4.815 7.65-8.813v.091c.09 1 .99 1.727 1.98 1.636 7.92-.818 16.74 2.726 23.04 9.176.719.727 1.889.727 2.609 0 6.3-6.45 15.119-9.994 23.039-9.176 4.95.545 9.72 2.907 14.58 7.359 5.939 5.36 8.459 13.9 7.019 23.258-.179.999.54 1.908 1.53 2.09h.27c.9 0 1.62-.636 1.8-1.545 1.71-10.63-1.26-20.26-8.189-26.529-5.4-4.906-10.98-7.632-16.65-8.267-8.46-.91-17.73 2.543-24.66 8.994-6.929-6.45-16.198-9.903-24.658-8.994 2.43-2.908 4.77-5.906 6.12-7.996 2.79-4.27 1.98-9.993-1.89-13.445-.63-.545-1.62-.545-2.34 0l-17.1 14.082-10.44 5.905c-.9.455-1.17 1.635-.72 2.453.45.908 1.62 1.18 2.43.727l10.44-5.905c.09-.091.18-.091.27-.183l15.93-13.173c1.62 2.18 1.8 5.27.27 7.541-3.69 5.632-15.3 18.534-15.39 18.715-.27.273-.45.636-.45 1-.18 1.635-.54 3.18-.99 4.724-1.26 4.27-4.23 10.448-11.34 15.9-2.25 1.725-4.68 3.088-7.29 4.178-4.589 1.908-9.719 2.362-14.94 1.272a50.027 50.027 0 0 0-5.309-.818c-1.08-.09-1.89.637-2.07 1.636-.09 1 .63 1.908 1.62 1.998 1.71.183 3.33.455 4.95.728 2.07.454 4.14.635 6.21.635 3.78 0 7.47-.726 10.8-2.09 2.88-1.18 5.67-2.724 8.1-4.632 8.009-6.088 11.339-13.083 12.78-17.807ZM2.154 42.005c.18 0 .45 0 .63-.092 4.41-1.635 8.01-3.997 10.17-6.722l22.678-23.713c2.07-2.18 4.68-3.634 7.65-4.18 12.69-2.543 17.82-3.088 19.89-3.088L92.51 6.754c-.54 1.181-1.53 2.18-2.79 2.907-1.35.727-4.23.545-6.839.273-1.17-.092-2.43-.182-3.6-.182h-.18l-14.85 1.453c-.99.091-1.71 1-1.62 2 .09.999.99 1.726 1.98 1.634l14.76-1.453c.99 0 2.07.09 3.24.182 2.7.181 5.49.454 7.65-.273.27.273.72.454 1.17.454h4.59v.091c0 .091-.09.182-.09.364a4.48 4.48 0 0 1-2.52 2.452c-.27.091-.63.273-.9.364-.72.273-1.53.454-2.34.454-1.89 0-4.05 0-6.12-.09-2.61 0-5.31-.091-7.56-.091h-.18l-8.28.817c-.99.09-1.71 1-1.62 1.999.09.909.9 1.635 1.8 1.635h.18l8.19-.817c2.25 0 4.77 0 7.38.09 2.16 0 4.23.091 6.21.091 1.349 0 2.52-.273 3.69-.727.36-.09.63-.272.989-.363 2.07-.908 3.69-2.453 4.41-4.451.09-.183.09-.364.18-.455.36-1.18.27-2.453-.45-3.453-.72-.999-1.8-1.544-2.97-1.544h-1.35c.63-.818 1.17-1.817 1.53-2.816.27-.818.63-2.09-.09-3.089a2.77 2.77 0 0 0-1.8-1L63.351.577h-.18c-3.15 0-10.08 1-20.609 3.089a18.108 18.108 0 0 0-9.63 5.27L10.253 32.645s-.09.091-.09.183c-1.71 2.18-4.86 4.27-8.64 5.632-.9.364-1.44 1.363-1.08 2.362.27.727.99 1.182 1.71 1.182ZM74.06 25.378h-.54l-7.65 1.636c-.99.181-1.62 1.18-1.35 2.18.18.818.9 1.454 1.8 1.454h.36l7.38-1.636c8.91.727 14.4-.363 16.65-3.27 1.53-2 .99-3.907.9-4.18l-1.71.546-1.71.454c0 .09.09.454-.36.908-.72.91-3.51 2.817-13.77 1.908Z"/></svg>