<svg class="footer-icon" role="img" aria-label="Home Icon Footer" xmlns="http://www.w3.org/2000/svg" width="80" height="96" fill="none">
 <path fill="#fff" d="M22.703 48.42H.558a.558.558 0 0 0-.558.56v2.98c0 .498.63.78 1.028.481 1.147-.865 3.13-2.064 5.313-2.064h10.732L.585 74.94a.56.56 0 0 0 .464.873h22.16a.56.56 0 0 0 .558-.56V72.17c0-.484-.59-.764-.983-.485-1.226.87-3.438 2.17-5.71 2.17H6.34l16.822-24.56a.56.56 0 0 0-.46-.876ZM56.584 55.475v19.777c0 .31.25.56.559.56h3.274a.56.56 0 0 0 .558-.56V56.736c.976-3.914 3.903-5.87 7.317-5.87 1.903 0 4.23 1.06 5.366 2.445 1.183 1.433 1.952 3.364 1.952 5.736v16.205c0 .31.25.56.558.56h3.273a.56.56 0 0 0 .559-.56V59.191c0-3.185-.984-5.059-2.44-6.858 0 0-3.414-3.913-8.96-3.913-5.613 0-10.972 5.685-11.88 6.695a.535.535 0 0 0-.136.36ZM51.629 61.34a.557.557 0 0 1-.556.515H32.196c0 3.398.887 6.196 2.636 8.087 1.79 2.047 4.83 2.917 8.29 2.917 1.76 0 4.018-.823 6.774-2.47a.562.562 0 0 1 .623.03c.257.193.3.564.085.802-2.753 3.06-6.122 4.591-10.106 4.591-4.175 0-7.455-1.216-9.84-3.648-2.227-2.355-3.34-5.482-3.34-9.382 0-3.9 1.193-7.258 3.578-10.077 2.425-2.857 5.665-4.285 9.72-4.285 3.34 0 6.024 1.1 8.051 3.3 2.028 2.163 3.042 4.827 3.042 7.993 0 .347-.027.89-.08 1.627Zm-3.823-1.67c0-2.78-.41-4.55-1.464-6.359-1.288-2.214-4.095-3.038-6.203-3.038-2.107 0-3.876.83-5.307 2.49-1.431 1.66-2.636 4.016-2.636 6.95 7.435.193 13.861.073 15.61-.043ZM8.442 89.69c-.08-.283-.16-.558-.24-.827-.082-.282-.155-.544-.222-.786-.054-.255-.107-.49-.16-.705a8.734 8.734 0 0 1-.122-.545h-.08c-.027.148-.067.33-.12.545-.041.215-.094.45-.161.705-.054.255-.121.524-.201.806-.067.27-.148.544-.241.827l-1.93 6.067h-2.01L0 84.972h1.83l1.487 5.765a30.668 30.668 0 0 1 .543 2.318c.08.349.133.652.16.906h.08a36.694 36.694 0 0 0 .301-1.37l.202-.806c.08-.27.154-.511.221-.726l1.91-6.087h1.929l1.85 6.087c.094.31.187.638.281.988.107.349.2.692.281 1.028.08.322.134.611.161.866h.08c.028-.228.074-.51.141-.846l.261-1.129c.108-.416.215-.826.322-1.229l1.508-5.765h1.809L12.36 95.776h-2.07L8.442 89.69Zm13.008-4.898c.924 0 1.715.201 2.371.605.67.402 1.18.974 1.528 1.712.362.726.543 1.58.543 2.56v1.069h-7.377c.026 1.223.335 2.156.925 2.802.602.63 1.44.946 2.512.946a8.1 8.1 0 0 0 1.81-.18 10.923 10.923 0 0 0 1.647-.565v1.552a7.92 7.92 0 0 1-1.628.524c-.536.12-1.173.182-1.91.182-1.017 0-1.922-.209-2.713-.625-.777-.417-1.387-1.035-1.829-1.855-.428-.833-.643-1.848-.643-3.043 0-1.183.194-2.197.583-3.044.402-.847.958-1.498 1.668-1.955.723-.457 1.56-.685 2.513-.685Zm-.02 1.45c-.845 0-1.515.277-2.01.827-.483.538-.771 1.29-.865 2.258h5.488c0-.618-.094-1.156-.282-1.612a2.281 2.281 0 0 0-.864-1.069c-.376-.269-.864-.403-1.468-.403Zm8.973 9.555h-1.769V80.479h1.77v15.318Zm5.182 0h-1.769V80.479h1.77v15.318Zm8.6-11.005c1.286 0 2.257.315 2.914.947.656.618.985 1.626.985 3.024v7.034h-1.749v-6.914c0-.873-.194-1.525-.583-1.954-.389-.43-.998-.646-1.829-.646-1.193 0-2.017.336-2.472 1.008-.456.672-.684 1.64-.684 2.902v5.604h-1.769V84.993h1.428l.26 1.472h.101c.241-.377.536-.685.885-.927a3.844 3.844 0 0 1 1.185-.565c.43-.121.872-.181 1.327-.181Zm11.4 0c.924 0 1.714.201 2.371.605.67.402 1.18.974 1.527 1.712.363.726.544 1.58.544 2.56v1.069H52.65c.026 1.223.335 2.156.925 2.802.602.63 1.44.946 2.512.946a8.09 8.09 0 0 0 1.809-.18 10.925 10.925 0 0 0 1.648-.565v1.552a7.918 7.918 0 0 1-1.628.524c-.536.12-1.173.182-1.91.182-1.018 0-1.923-.209-2.713-.625-.777-.417-1.387-1.035-1.829-1.855-.43-.833-.643-1.848-.643-3.043 0-1.183.194-2.197.582-3.044.403-.847.959-1.498 1.669-1.955.723-.457 1.56-.685 2.512-.685Zm-.02 1.45c-.845 0-1.515.277-2.01.827-.483.538-.771 1.29-.865 2.258h5.487c0-.618-.093-1.156-.281-1.612a2.274 2.274 0 0 0-.865-1.069c-.375-.269-.863-.403-1.467-.403Zm14.22 6.572c0 .699-.175 1.283-.523 1.753-.35.47-.845.827-1.488 1.068-.643.242-1.407.364-2.291.364-.751 0-1.4-.061-1.95-.182a5.953 5.953 0 0 1-1.427-.504v-1.612c.428.214.945.416 1.547.605.617.174 1.24.261 1.87.261.897 0 1.547-.14 1.95-.423.401-.296.602-.685.602-1.169 0-.269-.073-.51-.22-.726-.148-.215-.416-.43-.805-.644-.375-.216-.918-.458-1.628-.726a15.489 15.489 0 0 1-1.788-.806c-.496-.27-.878-.592-1.146-.968-.268-.376-.402-.86-.402-1.45 0-.915.369-1.62 1.105-2.117.75-.497 1.73-.746 2.935-.746.656 0 1.266.067 1.83.201a7.55 7.55 0 0 1 1.607.524l-.603 1.412a6.52 6.52 0 0 0-.945-.344 6.252 6.252 0 0 0-.985-.241 5.23 5.23 0 0 0-1.025-.101c-.723 0-1.28.121-1.668.363-.375.228-.563.544-.563.947 0 .296.087.55.261.766.174.202.463.403.865.605.415.188.964.416 1.648.685.684.255 1.266.518 1.749.786.482.269.85.598 1.105.988.255.376.382.853.382 1.43Zm9.617 0c0 .699-.174 1.283-.522 1.753-.349.47-.845.827-1.488 1.068-.643.242-1.407.364-2.291.364-.75 0-1.4-.061-1.95-.182a5.953 5.953 0 0 1-1.427-.504v-1.612c.429.214.945.416 1.547.605.617.174 1.24.261 1.87.261.898 0 1.547-.14 1.95-.423.402-.296.603-.685.603-1.169 0-.269-.074-.51-.221-.726-.148-.215-.416-.43-.804-.644-.375-.216-.918-.458-1.629-.726a15.483 15.483 0 0 1-1.788-.806c-.496-.27-.878-.592-1.146-.968-.268-.376-.402-.86-.402-1.45 0-.915.369-1.62 1.106-2.117.75-.497 1.728-.746 2.934-.746.657 0 1.266.067 1.83.201a7.548 7.548 0 0 1 1.607.524l-.603 1.412a6.515 6.515 0 0 0-.945-.344 6.261 6.261 0 0 0-.984-.241 5.24 5.24 0 0 0-1.026-.101c-.723 0-1.28.121-1.668.363-.375.228-.563.544-.563.947 0 .296.088.55.261.766.175.202.463.403.865.605.416.188.965.416 1.648.685.684.255 1.267.518 1.749.786.482.269.85.598 1.105.988.255.376.382.853.382 1.43ZM53.255 35.04c13.129-2.531 18.696 2.091 18.696 2.091-2.956-4.607-6.658-7.47-15.66-6.313-10.42 1.34-21.27 7.356-30.75 3.096-9.48-4.259-6.97-16.03-6.97-16.03 7.454 2.82 12.073 12.953 12.073 12.953-1.943-14.105-15.8-19.803-15.8-19.803-2.431 8.347.377 20.83 9.725 24.581 7.962 3.194 15.558 1.956 28.686-.575Z"/><path fill="#fff" d="M23.317 37.149c.371.337.774.665 1.21.98 9.343 6.757 22.909 2.464 34.765 3.242 3.839.252 6.709.965 8.902 2.06-2.39-2.315-6.005-3.819-11.962-4.209-11.095-.727-23.687 2.983-32.915-2.073ZM25.268 9.307s2.568.904 4.963 2.943c.292-.686.62-1.379.98-2.076-1.762-1.717-4.252-3.513-7.74-5.308-1.235 3.05-1.861 5.634-2.07 7.82a31.721 31.721 0 0 1 2.173 1.797c.37-2.972 1.694-5.176 1.694-5.176ZM55.308 9.307s1.28 2.135 1.674 5.034c.739-.658 1.47-1.25 2.179-1.777-.22-2.16-.844-4.706-2.056-7.698-3.486 1.795-5.977 3.591-7.74 5.308.361.7.69 1.392.981 2.076 2.394-2.04 4.962-2.943 4.962-2.943Z"/><path fill="#fff" d="M34.617 31.055c-7.46-12.819 5.4-23.256 5.666-23.469.002-.003.007-.005.007-.005s13.21 10.523 5.673 23.476c0 0 14.1-9.901-5.673-31.057l-.007.007c-19.764 21.149-5.666 31.048-5.666 31.048Z"/><path fill="#fff" d="M49.756 30.837s4.619-10.13 12.073-12.954c0 0 1.363 6.393-1.714 11.461 1.029.005 1.975.075 2.85.204 3.49-5.439 4.224-12.907 2.592-18.514 0 0-13.858 5.698-15.801 19.803Z"/>
 </svg>