<svg id="zen-wellness-logo" role="img" aria-label="Home Icon" xmlns="http://www.w3.org/2000/svg" width="70" height="84" fill="none"><path fill="#fff" d="M19.865 42.37H.488a.489.489 0 0 0-.488.489v2.607c0 .437.551.684.9.422 1.003-.757 2.739-1.806 4.649-1.806h9.39L.512 65.573a.49.49 0 0 0 .405.764h19.39a.49.49 0 0 0 .49-.49v-2.696c0-.424-.517-.669-.861-.425-1.073.762-3.009 1.899-4.997 1.899H5.55l14.719-21.49a.49.49 0 0 0-.403-.767ZM49.512 48.542v17.306c0 .27.219.49.488.49h2.865a.49.49 0 0 0 .488-.49V49.645c.854-3.424 3.415-5.136 6.403-5.136 1.665 0 3.702.928 4.695 2.14 1.035 1.254 1.708 2.944 1.708 5.02v14.179c0 .27.218.49.488.49h2.864a.49.49 0 0 0 .489-.49V51.794c0-2.787-.861-4.426-2.135-6 0 0-2.987-3.425-7.84-3.425-4.911 0-9.6 4.974-10.395 5.858a.468.468 0 0 0-.118.315ZM45.175 53.674a.487.487 0 0 1-.486.451H28.17c0 2.973.776 5.421 2.306 7.077 1.566 1.79 4.228 2.551 7.254 2.551 1.54 0 3.516-.72 5.927-2.16a.492.492 0 0 1 .546.026.478.478 0 0 1 .075.701c-2.41 2.679-5.358 4.018-8.844 4.018-3.653 0-6.523-1.064-8.61-3.192-1.948-2.061-2.922-4.798-2.922-8.21 0-3.412 1.044-6.35 3.13-8.817 2.123-2.5 4.958-3.75 8.506-3.75 2.922 0 5.27.963 7.044 2.889 1.775 1.891 2.662 4.222 2.662 6.993 0 .304-.024.779-.07 1.423Zm-3.345-1.46c0-2.433-.36-3.982-1.28-5.565-1.128-1.937-3.584-2.658-5.428-2.658-1.844 0-3.392.726-4.645 2.179-1.252 1.452-2.306 3.513-2.306 6.08 6.505.17 12.129.065 13.659-.036ZM7.387 78.48c-.07-.247-.14-.487-.211-.723l-.194-.688a16.973 16.973 0 0 0-.14-.617 7.648 7.648 0 0 1-.106-.476h-.07c-.024.13-.059.288-.106.476a8.83 8.83 0 0 1-.14.617c-.047.224-.106.459-.176.706-.059.235-.13.476-.211.723l-1.688 5.308h-1.76L0 74.353h1.6l1.302 5.044a26.91 26.91 0 0 1 .475 2.029c.07.305.117.57.14.793h.071a32.146 32.146 0 0 0 .264-1.199l.176-.706c.07-.235.135-.447.193-.635l1.67-5.326h1.69l1.617 5.326c.083.27.164.559.247.865.093.305.176.605.246.899.07.282.117.535.14.758h.071c.024-.2.064-.446.123-.74.07-.306.146-.635.229-.988.094-.364.187-.723.281-1.076l1.32-5.044h1.582l-2.62 9.453H9.004L7.387 78.48Zm11.382-4.285c.809 0 1.5.176 2.075.529a3.39 3.39 0 0 1 1.336 1.499c.317.635.475 1.381.475 2.24v.934h-6.454c.023 1.07.293 1.887.809 2.452.527.552 1.26.828 2.198.828.598 0 1.126-.052 1.583-.158.47-.118.95-.282 1.442-.494v1.358c-.48.212-.956.364-1.425.459-.469.105-1.026.159-1.67.159-.891 0-1.683-.183-2.375-.547-.68-.365-1.213-.906-1.6-1.623-.375-.729-.563-1.617-.563-2.663 0-1.035.17-1.922.51-2.663.352-.741.838-1.31 1.46-1.71.633-.4 1.366-.6 2.199-.6Zm-.018 1.27c-.739 0-1.325.24-1.76.722-.421.47-.673 1.13-.756 1.976h4.802c0-.54-.082-1.011-.246-1.411a1.996 1.996 0 0 0-.756-.935c-.329-.235-.756-.353-1.284-.353Zm7.852 8.36h-1.548V70.42h1.548v13.403Zm4.534 0H29.59V70.42h1.548v13.403Zm7.524-9.63c1.126 0 1.976.276 2.55.829.575.54.862 1.422.862 2.645v6.155h-1.53v-6.05c0-.763-.17-1.334-.51-1.71-.34-.376-.874-.564-1.6-.564-1.044 0-1.765.294-2.164.882-.398.587-.598 1.434-.598 2.539v4.903h-1.547v-9.453h1.248l.229 1.288h.088c.21-.33.469-.6.774-.812a3.365 3.365 0 0 1 1.037-.494 4.249 4.249 0 0 1 1.161-.158Zm9.975 0c.81 0 1.5.176 2.076.529a3.386 3.386 0 0 1 1.336 1.499c.317.635.475 1.381.475 2.24v.934h-6.455c.024 1.07.294 1.887.81 2.452.527.552 1.26.828 2.198.828.598 0 1.126-.052 1.582-.158.47-.118.95-.282 1.443-.494v1.358c-.48.212-.955.364-1.425.459-.469.105-1.026.159-1.67.159-.892 0-1.683-.183-2.375-.547-.68-.365-1.213-.906-1.6-1.623-.376-.729-.563-1.617-.563-2.663 0-1.035.17-1.922.51-2.663.352-.741.838-1.31 1.46-1.71.633-.4 1.366-.6 2.198-.6Zm-.017 1.27c-.74 0-1.325.24-1.76.722-.421.47-.673 1.13-.756 1.976h4.802c0-.54-.082-1.011-.247-1.411a1.989 1.989 0 0 0-.756-.935c-.328-.235-.755-.353-1.283-.353Zm12.442 5.749c0 .611-.153 1.123-.457 1.534-.305.412-.74.723-1.302.935-.562.211-1.23.317-2.005.317-.657 0-1.225-.053-1.706-.158a5.212 5.212 0 0 1-1.248-.441V81.99c.375.188.826.364 1.354.53.54.152 1.084.228 1.635.228.786 0 1.354-.123 1.707-.37.351-.26.527-.6.527-1.023 0-.235-.065-.447-.193-.635-.13-.188-.364-.376-.704-.564-.328-.189-.803-.4-1.425-.635-.61-.235-1.13-.47-1.565-.706-.434-.235-.768-.517-1.002-.846-.235-.33-.352-.753-.352-1.27 0-.8.323-1.417.967-1.852.657-.435 1.513-.652 2.568-.652a6.9 6.9 0 0 1 1.6.176c.504.106.974.259 1.407.458l-.527 1.235a5.714 5.714 0 0 0-.827-.3 5.487 5.487 0 0 0-.862-.212 4.574 4.574 0 0 0-.897-.088c-.633 0-1.12.106-1.46.318-.328.2-.492.476-.492.83 0 .257.077.48.229.669.152.177.404.353.756.53.363.164.844.363 1.442.599a11.34 11.34 0 0 1 1.53.687c.423.235.745.524.968.865.223.329.334.746.334 1.252Zm8.416 0c0 .611-.152 1.123-.457 1.534-.305.412-.74.723-1.302.935-.563.211-1.23.317-2.005.317a8.036 8.036 0 0 1-1.706-.158 5.212 5.212 0 0 1-1.249-.441V81.99c.375.188.827.364 1.354.53a5.98 5.98 0 0 0 1.636.228c.786 0 1.354-.123 1.706-.37.352-.26.528-.6.528-1.023 0-.235-.065-.447-.193-.635-.13-.188-.364-.376-.704-.564-.328-.189-.803-.4-1.425-.635-.61-.235-1.131-.47-1.565-.706-.434-.235-.768-.517-1.002-.846-.235-.33-.352-.753-.352-1.27 0-.8.322-1.417.967-1.852.657-.435 1.513-.652 2.568-.652a6.9 6.9 0 0 1 1.6.176c.504.106.973.259 1.407.458l-.527 1.235a5.714 5.714 0 0 0-.827-.3 5.493 5.493 0 0 0-.861-.212 4.584 4.584 0 0 0-.898-.088c-.633 0-1.12.106-1.46.318-.328.2-.492.476-.492.83 0 .257.076.48.229.669.153.177.404.353.756.53.364.164.844.363 1.442.599.598.223 1.108.453 1.53.687.422.235.745.524.968.865.222.329.334.746.334 1.252ZM46.598 30.662c11.487-2.215 16.359 1.83 16.359 1.83-2.587-4.031-5.826-6.537-13.703-5.524-9.117 1.172-18.61 6.436-26.906 2.709-8.296-3.726-6.099-14.027-6.099-14.027 6.523 2.468 10.565 11.334 10.565 11.334C25.113 14.643 12.988 9.657 12.988 9.657c-2.127 7.303.33 18.226 8.51 21.508 6.966 2.795 13.613 1.712 25.1-.503Z"/><path fill="#fff" d="M20.402 32.507c.325.296.677.582 1.059.857 8.175 5.913 20.045 2.157 30.42 2.837 3.358.221 5.87.845 7.788 1.804-2.09-2.026-5.254-3.342-10.466-3.684-9.709-.636-20.727 2.61-28.8-1.814ZM22.11 8.146s2.247.79 4.342 2.574c.256-.6.542-1.205.858-1.816-1.543-1.502-3.721-3.073-6.773-4.644-1.08 2.668-1.628 4.93-1.81 6.842.618.467 1.258.99 1.9 1.572.324-2.6 1.483-4.528 1.483-4.528ZM48.395 8.146s1.12 1.868 1.464 4.404a27.832 27.832 0 0 1 1.907-1.555c-.192-1.89-.738-4.117-1.799-6.735-3.05 1.57-5.23 3.142-6.772 4.644.316.613.604 1.218.858 1.816 2.095-1.783 4.342-2.574 4.342-2.574Z"/><path fill="#fff" d="M30.29 27.175C23.763 15.959 35.016 6.826 35.248 6.64c.002-.003.006-.005.006-.005s11.56 9.208 4.964 20.542c0 0 12.337-8.664-4.964-27.175l-.006.007C17.955 18.513 30.29 27.175 30.29 27.175Z"/><path fill="#fff" d="M43.536 26.984S47.578 18.12 54.1 15.65c0 0 1.193 5.594-1.5 10.028.9.004 1.729.066 2.495.179 3.053-4.76 3.695-11.294 2.267-16.2 0 0-12.125 4.986-13.826 17.327Z"/></svg>